HIERARCHY
ROOT Hips
{
	OFFSET 0.000000 83.214638 0.000000
	CHANNELS 6 Xposition Yposition Zposition Xrotation Yrotation Zrotation
	JOINT Pelvis
	{
		OFFSET 0.000000 0.000000 0.000000
		CHANNELS 3 Xrotation Yrotation Zrotation
		JOINT LeftUpLeg
		{
			OFFSET 8.479700 -4.795502 -0.379100
			CHANNELS 3 Xrotation Yrotation Zrotation
			JOINT LeftLeg
			{
				OFFSET 0.024144 -32.555107 0.112900
				CHANNELS 3 Xrotation Yrotation Zrotation
				JOINT LeftFoot
				{
					OFFSET -0.024144 -32.638630 -3.012600
					CHANNELS 3 Xrotation Yrotation Zrotation
					JOINT LeftToeBase
					{
						OFFSET 0.970200 -13.225400 11.864200
						CHANNELS 3 Xrotation Yrotation Zrotation
						End Site
						{
							OFFSET 0.000000 12.319262 0.000000
						}
					}
					JOINT LFootTongue
					{
						OFFSET 1.142400 -1.059800 6.665200
						CHANNELS 3 Xrotation Yrotation Zrotation
						End Site
						{
							OFFSET 0.000000 12.319262 0.000000
						}
					}
				}
				JOINT LeftPantLeg
				{
					OFFSET 0.918482 -16.533964 -2.284700
					CHANNELS 3 Xrotation Yrotation Zrotation
					End Site
					{
						OFFSET 0.350399 24.744368 0.000000
					}
				}
			}
		}
		JOINT RightUpLeg
		{
			OFFSET -8.479700 -4.795502 -0.379100
			CHANNELS 3 Xrotation Yrotation Zrotation
			JOINT RightLeg
			{
				OFFSET -0.023144 -32.555092 0.112900
				CHANNELS 3 Xrotation Yrotation Zrotation
				JOINT RightFoot
				{
					OFFSET 0.023144 -32.638641 -3.012700
					CHANNELS 3 Xrotation Yrotation Zrotation
					JOINT RightToeBase
					{
						OFFSET -0.970200 -13.225400 11.864200
						CHANNELS 3 Xrotation Yrotation Zrotation
						End Site
						{
							OFFSET 0.000000 12.319244 0.000000
						}
					}
					JOINT RFootTongue
					{
						OFFSET -1.142200 -1.059800 6.665200
						CHANNELS 3 Xrotation Yrotation Zrotation
						End Site
						{
							OFFSET 0.000000 12.319243 0.000000
						}
					}
				}
				JOINT RightPantLeg
				{
					OFFSET -0.919482 -16.533978 -2.284800
					CHANNELS 3 Xrotation Yrotation Zrotation
					End Site
					{
						OFFSET -0.350400 24.744419 0.000000
					}
				}
			}
		}
	}
	JOINT Spine
	{
		OFFSET 0.000000 7.722000 1.166200
		CHANNELS 3 Xrotation Yrotation Zrotation
		JOINT Spine1
		{
			OFFSET 0.000000 12.024101 0.248800
			CHANNELS 3 Xrotation Yrotation Zrotation
			JOINT Spine2
			{
				OFFSET 0.000000 11.502998 -0.491200
				CHANNELS 3 Xrotation Yrotation Zrotation
				JOINT Neck
				{
					OFFSET 0.000000 18.430702 -3.123100
					CHANNELS 3 Xrotation Yrotation Zrotation
					JOINT Head
					{
						OFFSET 0.000000 9.051102 1.034000
						CHANNELS 3 Xrotation Yrotation Zrotation
						JOINT HairB
						{
							OFFSET 0.208400 24.786102 24.822300
							CHANNELS 3 Xrotation Yrotation Zrotation
							End Site
							{
								OFFSET 0.000000 32.263779 0.000000
							}
						}
						JOINT HairA
						{
							OFFSET -7.081100 24.428299 23.196600
							CHANNELS 3 Xrotation Yrotation Zrotation
							End Site
							{
								OFFSET 0.000000 32.263779 0.000000
							}
						}
						JOINT Hat
						{
							OFFSET 16.728800 15.048294 -15.439601
							CHANNELS 3 Xrotation Yrotation Zrotation
							End Site
							{
								OFFSET 0.000000 32.263779 0.000000
							}
						}
					}
				}
				JOINT LeftShoulder
				{
					OFFSET 6.197800 13.665199 -4.064700
					CHANNELS 3 Xrotation Yrotation Zrotation
					JOINT LeftArm
					{
						OFFSET 7.778100 -0.187103 -1.709300
						CHANNELS 3 Xrotation Yrotation Zrotation
						JOINT LeftForeArm
						{
							OFFSET 22.049376 0.000000 0.000000
							CHANNELS 3 Xrotation Yrotation Zrotation
							JOINT LeftHand
							{
								OFFSET 23.009392 0.000000 0.000000
								CHANNELS 3 Xrotation Yrotation Zrotation
								JOINT LeftHandThumb1
								{
									OFFSET 3.507191 -2.063065 3.133727
									CHANNELS 3 Xrotation Yrotation Zrotation
									JOINT LeftHandThumb2
									{
										OFFSET 3.101337 -1.790558 1.790558
										CHANNELS 3 Xrotation Yrotation Zrotation
										JOINT LeftHandThumb3
										{
											OFFSET 3.058640 -1.765907 1.765906
											CHANNELS 3 Xrotation Yrotation Zrotation
											End Site
											{
												OFFSET -0.415260 3.926476 -0.049563
											}
										}
									}
								}
								JOINT LeftHandIndex1
								{
									OFFSET 11.334419 -0.901459 3.706815
									CHANNELS 3 Xrotation Yrotation Zrotation
									JOINT LeftHandIndex2
									{
										OFFSET 3.283112 0.000000 0.000000
										CHANNELS 3 Xrotation Yrotation Zrotation
										JOINT LeftHandIndex3
										{
											OFFSET 3.323853 0.000000 0.000000
											CHANNELS 3 Xrotation Yrotation Zrotation
											End Site
											{
												OFFSET -1.135597 3.097809 0.402452
											}
										}
									}
								}
								JOINT LeftHandMiddle1
								{
									OFFSET 11.335861 0.000000 0.000000
									CHANNELS 3 Xrotation Yrotation Zrotation
									JOINT LeftHandMiddle2
									{
										OFFSET 3.410492 0.000000 0.000000
										CHANNELS 3 Xrotation Yrotation Zrotation
										JOINT LeftHandMiddle3
										{
											OFFSET 3.312172 0.000000 0.000000
											CHANNELS 3 Xrotation Yrotation Zrotation
											End Site
											{
												OFFSET -1.150200 3.080154 0.400270
											}
										}
									}
								}
								JOINT LeftHandRing1
								{
									OFFSET 11.514786 -0.013176 -3.003090
									CHANNELS 3 Xrotation Yrotation Zrotation
									JOINT LeftHandRing2
									{
										OFFSET 3.053307 0.000000 0.000000
										CHANNELS 3 Xrotation Yrotation Zrotation
										JOINT LeftHandRing3
										{
											OFFSET 3.295807 0.000000 0.000000
											CHANNELS 3 Xrotation Yrotation Zrotation
											End Site
											{
												OFFSET -1.281006 3.013344 0.375733
											}
										}
									}
								}
								JOINT LeftHandPinky1
								{
									OFFSET 10.518692 -0.960396 -5.730441
									CHANNELS 3 Xrotation Yrotation Zrotation
									JOINT LeftHandPinky2
									{
										OFFSET 2.861649 0.000000 0.000000
										CHANNELS 3 Xrotation Yrotation Zrotation
										JOINT LeftHandPinky3
										{
											OFFSET 2.863380 0.000000 0.000000
											CHANNELS 3 Xrotation Yrotation Zrotation
											End Site
											{
												OFFSET -0.843597 2.711159 0.369971
											}
										}
									}
								}
							}
							JOINT LSleeve
							{
								OFFSET 6.676277 -0.344902 -1.011730
								CHANNELS 3 Xrotation Yrotation Zrotation
								End Site
								{
									OFFSET 0.000000 14.885353 0.000000
								}
							}
						}
					}
				}
				JOINT RightShoulder
				{
					OFFSET -6.197800 13.665199 -4.064700
					CHANNELS 3 Xrotation Yrotation Zrotation
					JOINT RightArm
					{
						OFFSET -7.778100 -0.187103 -1.709300
						CHANNELS 3 Xrotation Yrotation Zrotation
						JOINT RightForeArm
						{
							OFFSET -22.049376 0.000000 0.000000
							CHANNELS 3 Xrotation Yrotation Zrotation
							JOINT RightHand
							{
								OFFSET -23.009392 0.000000 0.000000
								CHANNELS 3 Xrotation Yrotation Zrotation
								JOINT RightHandThumb1
								{
									OFFSET -3.507191 -2.063065 3.133727
									CHANNELS 3 Xrotation Yrotation Zrotation
									JOINT RightHandThumb2
									{
										OFFSET -3.101337 -1.790558 1.790558
										CHANNELS 3 Xrotation Yrotation Zrotation
										JOINT RightHandThumb3
										{
											OFFSET -3.058640 -1.765907 1.765906
											CHANNELS 3 Xrotation Yrotation Zrotation
											End Site
											{
												OFFSET 0.415260 3.926476 -0.049563
											}
										}
									}
								}
								JOINT RightHandIndex1
								{
									OFFSET -11.334419 -0.901459 3.706815
									CHANNELS 3 Xrotation Yrotation Zrotation
									JOINT RightHandIndex2
									{
										OFFSET -3.283112 0.000000 0.000000
										CHANNELS 3 Xrotation Yrotation Zrotation
										JOINT RightHandIndex3
										{
											OFFSET -3.323853 0.000000 0.000000
											CHANNELS 3 Xrotation Yrotation Zrotation
											End Site
											{
												OFFSET 1.135597 3.097809 0.402452
											}
										}
									}
								}
								JOINT RightHandMiddle1
								{
									OFFSET -11.335861 0.000000 0.000000
									CHANNELS 3 Xrotation Yrotation Zrotation
									JOINT RightHandMiddle2
									{
										OFFSET -3.410492 0.000000 0.000000
										CHANNELS 3 Xrotation Yrotation Zrotation
										JOINT RightHandMiddle3
										{
											OFFSET -3.312172 0.000000 0.000000
											CHANNELS 3 Xrotation Yrotation Zrotation
											End Site
											{
												OFFSET 1.150200 3.080154 0.400270
											}
										}
									}
								}
								JOINT RightHandRing1
								{
									OFFSET -11.514786 -0.013176 -3.003090
									CHANNELS 3 Xrotation Yrotation Zrotation
									JOINT RightHandRing2
									{
										OFFSET -3.053307 0.000000 0.000000
										CHANNELS 3 Xrotation Yrotation Zrotation
										JOINT RightHandRing3
										{
											OFFSET -3.295807 0.000000 0.000000
											CHANNELS 3 Xrotation Yrotation Zrotation
											End Site
											{
												OFFSET 1.281006 3.013344 0.375733
											}
										}
									}
								}
								JOINT RightHandPinky1
								{
									OFFSET -10.518692 -0.960396 -5.730441
									CHANNELS 3 Xrotation Yrotation Zrotation
									JOINT RightHandPinky2
									{
										OFFSET -2.861649 0.000000 0.000000
										CHANNELS 3 Xrotation Yrotation Zrotation
										JOINT RightHandPinky3
										{
											OFFSET -2.863380 0.000000 0.000000
											CHANNELS 3 Xrotation Yrotation Zrotation
											End Site
											{
												OFFSET 0.843597 2.711159 0.369971
											}
										}
									}
								}
							}
							JOINT RSleeve
							{
								OFFSET -6.676277 -0.344902 -1.011730
								CHANNELS 3 Xrotation Yrotation Zrotation
								End Site
								{
									OFFSET 0.000000 14.885353 0.000000
								}
							}
						}
					}
				}
				JOINT Backpack
				{
					OFFSET 0.000000 -2.471497 36.677502
					CHANNELS 3 Xrotation Yrotation Zrotation
					End Site
					{
						OFFSET 0.000000 20.427315 0.000000
					}
				}
				JOINT Hood
				{
					OFFSET 0.000000 18.754097 -10.431000
					CHANNELS 3 Xrotation Yrotation Zrotation
					JOINT Hood1
					{
						OFFSET 0.000000 -5.011002 -7.685901
						CHANNELS 3 Xrotation Yrotation Zrotation
						End Site
						{
							OFFSET 0.000000 9.175140 0.000000
						}
					}
				}
				JOINT LHoodieString
				{
					OFFSET 5.250500 16.397697 3.089900
					CHANNELS 3 Xrotation Yrotation Zrotation
					JOINT LHoodieString1
					{
						OFFSET 0.257700 -6.364304 3.694600
						CHANNELS 3 Xrotation Yrotation Zrotation
						JOINT LHoodieString2
						{
							OFFSET 0.000000 -9.643799 2.679100
							CHANNELS 3 Xrotation Yrotation Zrotation
							End Site
							{
								OFFSET 0.000000 10.009018 0.000000
							}
						}
					}
				}
				JOINT RHoodieString
				{
					OFFSET -5.250500 16.397697 3.089900
					CHANNELS 3 Xrotation Yrotation Zrotation
					JOINT RHoodieString1
					{
						OFFSET -0.257700 -6.364304 3.694600
						CHANNELS 3 Xrotation Yrotation Zrotation
						JOINT RHoodieString2
						{
							OFFSET 0.000000 -9.643799 2.679100
							CHANNELS 3 Xrotation Yrotation Zrotation
							End Site
							{
								OFFSET 0.000000 10.009018 0.000000
							}
						}
					}
				}
			}
			JOINT LBackpack_Strap
			{
				OFFSET 15.223200 -7.719803 -6.610900
				CHANNELS 3 Xrotation Yrotation Zrotation
				End Site
				{
					OFFSET 0.000000 16.040596 0.000000
				}
			}
			JOINT RBackpack_Strap
			{
				OFFSET -15.223000 -7.719803 -6.610900
				CHANNELS 3 Xrotation Yrotation Zrotation
				End Site
				{
					OFFSET 0.000000 16.040596 0.000000
				}
			}
		}
	}
	JOINT BoyFacialAnim_Joint
	{
		OFFSET 1.000000 -82.208099 -1.550900
		CHANNELS 3 Xrotation Yrotation Zrotation
		End Site
		{
			OFFSET 0.000000 30.012791 0.000000
		}
	}
}
MOTION
Frames: 4
Frame Time: 0.016667
0.369635 88.216194 -4.504761 -92.964619 0.968452 1.668881 0.000000 -0.000000 -0.000000 -3.670413 17.787609 18.661776 6.457270 5.338905 1.520596 23.243065 29.396899 -30.565769 -0.000001 -0.000000 -0.000000 -0.000001 -0.000000 0.000000 0.000001 -0.000002 -0.000000 -2.053370 -17.653628 -13.375396 3.851414 -7.651927 -8.077523 34.808259 -28.971818 29.177151 0.000001 0.000001 -0.000000 0.000001 0.000001 -0.000000 -0.000000 0.000001 0.000002 3.833985 1.366099 -0.667529 17.173669 2.320172 -1.615368 15.078712 2.910057 -1.904893 1.032868 0.830501 -3.592069 20.824666 3.567347 -10.053786 -0.000001 0.000000 -0.000002 -0.000001 0.000000 -0.000002 -0.000001 0.000000 -0.000002 0.987223 5.865646 -0.070264 17.540358 -48.233628 -39.213431 0.000060 -78.452987 0.000066 -11.155058 -10.690905 -3.204738 6.590530 -4.958657 16.122663 7.178870 21.567330 2.147319 -0.000003 -0.000001 0.000001 0.659516 4.932364 -26.024462 0.169796 1.401622 -13.813540 -0.000001 0.000001 0.000000 1.376915 6.461970 -24.994171 0.169869 1.401975 -13.817119 -0.000000 -0.000001 0.000002 2.098727 8.644293 -21.209677 0.169783 1.401614 -13.813548 -0.000002 -0.000001 -0.000002 2.123439 10.735866 -14.817559 0.167491 1.392250 -13.719342 0.000002 0.000000 0.000002 -0.000000 0.000005 0.000002 1.003560 3.077428 16.318586 -30.625322 39.526117 60.112536 0.000048 122.611267 -0.000057 2.149663 2.949038 16.100983 -3.770209 1.684401 8.767253 7.918264 -27.751649 -3.100769 0.000004 0.000001 -0.000002 -0.371389 2.206044 53.128336 1.396290 -3.326840 45.526667 -0.000001 0.000001 0.000004 -1.457720 -4.435187 63.714648 1.929834 -3.776465 54.123085 0.000001 0.000002 -0.000003 0.113592 -5.549219 69.688038 2.144052 -3.922174 57.313251 -0.000001 0.000001 -0.000001 2.818424 -6.533405 66.047581 2.835573 -4.286887 66.951604 0.000000 0.000001 -0.000001 0.000003 -0.000001 0.000001 0.000000 0.000000 -0.000000 0.000000 0.000000 -0.000000 0.000000 0.000000 -0.000000 0.000000 0.000000 -0.000000 0.000000 0.000000 -0.000000 -0.000003 -0.000001 -0.000000 0.000000 0.000000 -0.000000 0.000000 0.000000 -0.000000 -0.000003 -0.000001 -0.000000 0.000000 0.000001 -0.000000 0.000000 0.000001 -0.000000 0.000000 -0.000000 -0.000000 
0.339496 88.174301 -4.450455 -92.872739 0.821988 1.579572 0.000000 0.000000 0.000000 -3.782467 17.754218 18.679685 6.369141 5.430726 1.564949 23.768826 29.392223 -30.566483 -0.000000 0.000000 -0.000000 -0.000000 0.000000 -0.000000 -0.000001 0.000001 0.000002 -2.252178 -17.602284 -13.280223 3.802391 -7.764025 -7.944451 35.097733 -28.793212 28.942636 -0.000000 -0.000000 0.000000 -0.000000 -0.000000 0.000000 -0.000000 -0.000002 -0.000000 3.767236 1.341438 -0.631188 16.775781 2.298675 -1.540694 14.708502 2.873933 -1.840032 1.206952 0.819801 -3.467082 21.720502 3.566620 -10.135181 -0.000002 -0.000001 0.000001 -0.000002 -0.000001 0.000001 -0.000002 -0.000001 0.000001 1.057898 5.646925 -0.072704 17.692939 -47.941132 -39.648852 -0.000026 -78.307115 -0.000057 -11.274805 -10.604941 -3.471090 6.590534 -4.958660 16.122665 7.178869 21.567333 2.147318 -0.000001 0.000001 0.000001 0.659516 4.932364 -26.024464 0.169797 1.401619 -13.813544 -0.000001 0.000000 -0.000002 1.376919 6.461967 -24.994171 0.169872 1.401973 -13.817111 -0.000000 0.000003 0.000002 2.098732 8.644295 -21.209674 0.169785 1.401611 -13.813549 -0.000002 -0.000004 0.000001 2.123443 10.735867 -14.817558 0.167495 1.392248 -13.719337 0.000004 0.000001 0.000002 0.000000 -0.000003 0.000004 0.998594 3.039514 16.387543 -30.378359 39.942393 60.251879 0.000027 121.965527 -0.000031 1.852879 2.561968 15.661378 -3.770211 1.684405 8.767248 7.918268 -27.751649 -3.100774 0.000002 -0.000002 -0.000001 -0.371394 2.206054 53.128353 1.396277 -3.326852 45.526653 0.000001 -0.000000 0.000002 -1.457715 -4.435184 63.714655 1.929838 -3.776459 54.123061 0.000002 -0.000002 0.000001 0.113576 -5.549222 69.688024 2.144049 -3.922166 57.313251 -0.000000 -0.000003 -0.000002 2.818437 -6.533403 66.047601 2.835547 -4.286869 66.951591 0.000001 0.000001 -0.000001 -0.000001 0.000000 0.000001 0.000001 -0.000001 0.000000 0.000001 -0.000001 0.000000 0.000001 -0.000001 0.000000 0.000001 -0.000001 0.000000 0.000001 -0.000001 0.000000 -0.000001 0.000000 -0.000000 0.000001 -0.000001 0.000000 0.000001 -0.000001 0.000000 -0.000001 0.000000 -0.000000 0.000001 -0.000000 0.000000 0.000001 -0.000000 0.000000 0.000000 0.000000 0.000000 
0.318248 88.135902 -4.375305 -92.661673 0.740720 1.487667 -0.000000 -0.000000 -0.000000 -3.908731 17.704639 18.700757 6.114952 5.542232 1.561362 24.524020 29.386267 -30.568068 0.000001 -0.000002 0.000001 0.000001 -0.000002 0.000001 -0.000000 -0.000002 -0.000001 -2.472457 -17.546348 -13.199502 3.536720 -7.896733 -7.748148 35.755603 -28.624367 28.721895 0.000001 -0.000000 -0.000001 0.000001 -0.000000 -0.000001 0.000001 0.000001 0.000001 3.670755 1.286261 -0.597739 16.309057 2.217899 -1.457732 14.304895 2.791178 -1.752528 1.371155 0.810484 -3.366245 22.599878 3.500707 -10.232341 -0.000000 0.000000 -0.000002 -0.000000 0.000000 -0.000002 -0.000000 0.000000 -0.000002 1.036042 5.431825 -0.068784 17.978694 -47.538974 -40.193754 0.000047 -78.189451 0.000042 -11.401804 -10.483616 -3.731917 6.590538 -4.958661 16.122667 7.178868 21.567333 2.147314 -0.000001 -0.000004 0.000001 0.659520 4.932365 -26.024464 0.169802 1.401614 -13.813544 -0.000000 -0.000001 -0.000000 1.376920 6.461965 -24.994171 0.169869 1.401973 -13.817117 0.000001 -0.000003 -0.000002 2.098735 8.644299 -21.209677 0.169779 1.401609 -13.813549 -0.000000 0.000000 -0.000000 2.123446 10.735866 -14.817561 0.167490 1.392245 -13.719343 0.000003 0.000003 0.000002 0.000000 0.000003 0.000004 1.002744 3.007377 16.447022 -30.000687 40.337653 60.294267 0.000027 121.436747 -0.000028 1.901608 2.536335 15.603092 -3.770198 1.684402 8.767254 7.918268 -27.751655 -3.100777 0.000002 -0.000000 -0.000004 -0.371404 2.206044 53.128353 1.396285 -3.326844 45.526660 -0.000002 0.000001 -0.000002 -1.457712 -4.435173 63.714662 1.929830 -3.776466 54.123099 -0.000001 -0.000001 -0.000000 0.113495 -5.549177 69.688044 2.144033 -3.922172 57.313258 -0.000001 -0.000003 -0.000000 2.818438 -6.533401 66.047608 2.835551 -4.286879 66.951611 -0.000000 0.000000 -0.000001 0.000001 -0.000002 -0.000002 0.000000 -0.000000 -0.000000 0.000000 -0.000000 -0.000000 0.000000 -0.000000 -0.000000 0.000000 -0.000000 -0.000000 0.000000 -0.000000 -0.000000 0.000000 0.000001 -0.000000 0.000000 -0.000000 -0.000000 0.000000 -0.000000 -0.000000 0.000000 0.000001 -0.000000 -0.000001 0.000000 0.000000 -0.000001 0.000000 0.000000 -0.000000 -0.000000 -0.000000 
0.303480 88.103561 -4.286987 -92.243153 0.751630 1.373384 0.000000 0.000000 -0.000000 -4.248782 17.592474 18.757919 5.978634 5.765272 1.494617 25.426040 29.373584 -30.566982 0.000001 0.000001 -0.000000 0.000001 0.000001 0.000000 0.000001 0.000002 0.000001 -2.829243 -17.470536 -12.936953 3.117869 -7.552775 -7.806839 37.152930 -28.878979 28.928826 -0.000001 -0.000000 -0.000000 -0.000001 -0.000000 -0.000000 0.000000 0.000001 0.000000 3.566782 1.179308 -0.559089 15.819690 2.050238 -1.351606 13.873241 2.617391 -1.626179 1.388079 0.796731 -3.274180 23.145646 3.425966 -10.301212 -0.000002 0.000000 0.000000 -0.000002 0.000000 0.000000 -0.000002 0.000000 0.000000 1.007916 5.213136 -0.072448 18.126070 -46.854784 -41.156603 -0.000015 -78.131524 -0.000010 -11.365471 -10.354289 -4.045962 6.590532 -4.958660 16.122662 7.178874 21.567331 2.147317 0.000003 -0.000003 0.000002 0.659518 4.932364 -26.024465 0.169805 1.401612 -13.813544 -0.000003 -0.000001 0.000002 1.376918 6.461962 -24.994172 0.169873 1.401974 -13.817113 -0.000002 0.000002 0.000000 2.098732 8.644296 -21.209679 0.169782 1.401608 -13.813550 -0.000001 0.000002 0.000002 2.123441 10.735860 -14.817564 0.167495 1.392247 -13.719341 -0.000000 0.000001 0.000002 -0.000001 0.000001 0.000001 0.964781 2.960574 16.488492 -29.252143 40.564879 59.893123 0.000060 121.381423 -0.000044 2.367302 2.832857 15.788920 -3.770194 1.684410 8.767249 7.918264 -27.751653 -3.100777 0.000004 0.000001 0.000000 -0.371399 2.206043 53.128353 1.396314 -3.326851 45.526640 0.000003 -0.000002 0.000003 -1.457708 -4.435185 63.714641 1.929838 -3.776456 54.123071 -0.000001 -0.000001 0.000001 0.113333 -5.549133 69.688038 2.144048 -3.922166 57.313265 -0.000002 0.000004 0.000001 2.818438 -6.533409 66.047574 2.835560 -4.286879 66.951604 -0.000001 0.000003 0.000001 -0.000000 -0.000000 -0.000001 -0.000000 -0.000001 0.000000 -0.000000 -0.000001 0.000000 -0.000000 -0.000001 0.000000 -0.000000 -0.000001 0.000000 -0.000000 -0.000001 0.000000 -0.000000 0.000000 -0.000000 -0.000000 -0.000001 0.000000 -0.000000 -0.000001 0.000000 -0.000000 0.000000 -0.000000 0.000002 0.000000 0.000000 0.000002 0.000000 0.000000 0.000000 0.000000 -0.000000 
